<svg xmlns="http://www.w3.org/2000/svg" viewBox="0 0 600 800">
<defs><linearGradient id="b"><stop stop-color="#dceafa"/><stop offset=".5" stop-color="#91b0ce"/><stop offset="1" stop-color="#557ea6"/></linearGradient></defs>
<g fill="none" stroke="url(#b)" stroke-width="7" stroke-linecap="round" opacity=".8">
<path d="M40 780C130 650 80 550 190 430S270 240 470 140C520 110 560 60 590 10"/>
<path d="M130 650C70 590 60 530 80 470"/><path d="M220 510C290 460 310 400 300 340"/><path d="M315 350C275 290 280 240 310 190"/>
</g>
<g fill="url(#b)" opacity=".75">
<ellipse cx="80" cy="475" rx="45" ry="19" transform="rotate(-25 80 475)"/><ellipse cx="90" cy="555" rx="48" ry="19" transform="rotate(25 90 555)"/>
<ellipse cx="150" cy="625" rx="48" ry="19" transform="rotate(-25 150 625)"/><ellipse cx="220" cy="510" rx="48" ry="19" transform="rotate(25 220 510)"/>
<ellipse cx="300" cy="405" rx="48" ry="19" transform="rotate(-25 300 405)"/><ellipse cx="300" cy="285" rx="45" ry="18" transform="rotate(25 300 285)"/>
<ellipse cx="390" cy="230" rx="50" ry="19" transform="rotate(-25 390 230)"/><ellipse cx="500" cy="135" rx="48" ry="19" transform="rotate(25 500 135)"/>
</g>
<g fill="#fff" stroke="#b99a62" stroke-width="2"><circle cx="550" cy="48" r="30"/><circle cx="510" cy="70" r="30"/><circle cx="590" cy="70" r="30"/><circle cx="525" cy="105" r="30"/><circle cx="575" cy="105" r="30"/></g>
<circle cx="550" cy="78" r="11" fill="#d4bb84"/>
</svg>