<svg xmlns="http://www.w3.org/2000/svg" viewBox="0 0 520 620" fill="none">
<defs>
 <linearGradient id="petal" x1="0" y1="0" x2="1" y2="1"><stop stop-color="#8fb4d3" stop-opacity=".86"/><stop offset="1" stop-color="#dceaf5" stop-opacity=".48"/></linearGradient>
 <linearGradient id="petal2" x1="1" y1="0" x2="0" y2="1"><stop stop-color="#5f88ad" stop-opacity=".76"/><stop offset="1" stop-color="#bcd3e6" stop-opacity=".38"/></linearGradient>
 <linearGradient id="gold" x1="0" y1="0" x2="1" y2="1"><stop stop-color="#b28a4d"/><stop offset=".5" stop-color="#e1c98f"/><stop offset="1" stop-color="#9c7439"/></linearGradient>
 <filter id="soft"><feGaussianBlur stdDeviation="1.3"/></filter>
</defs>
<path d="M24 602C84 488 126 405 205 327c67-66 131-96 211-108" stroke="#7399b9" stroke-width="4" stroke-linecap="round" opacity=".42"/>
<path d="M82 532c35-51 80-97 132-137M144 463c4-47 20-92 48-133M198 399c38-26 76-43 122-50" stroke="#7399b9" stroke-width="2.4" opacity=".4"/>
<g transform="translate(58 72)">
 <ellipse cx="80" cy="58" rx="43" ry="31" transform="rotate(-24 80 58)" fill="url(#petal)"/>
 <ellipse cx="115" cy="43" rx="42" ry="29" transform="rotate(16 115 43)" fill="url(#petal2)"/>
 <ellipse cx="119" cy="82" rx="40" ry="28" transform="rotate(51 119 82)" fill="url(#petal)"/>
 <ellipse cx="79" cy="92" rx="40" ry="29" transform="rotate(104 79 92)" fill="url(#petal2)"/>
 <ellipse cx="57" cy="55" rx="38" ry="28" transform="rotate(138 57 55)" fill="url(#petal)"/>
 <circle cx="91" cy="67" r="14" fill="#e6cf94" opacity=".72"/>
 <circle cx="91" cy="67" r="4" fill="#9d773f" opacity=".8"/>
</g>
<g transform="translate(262 8) scale(.72)">
 <ellipse cx="80" cy="58" rx="43" ry="31" transform="rotate(-24 80 58)" fill="url(#petal2)"/>
 <ellipse cx="115" cy="43" rx="42" ry="29" transform="rotate(16 115 43)" fill="url(#petal)"/>
 <ellipse cx="119" cy="82" rx="40" ry="28" transform="rotate(51 119 82)" fill="url(#petal2)"/>
 <ellipse cx="79" cy="92" rx="40" ry="29" transform="rotate(104 79 92)" fill="url(#petal)"/>
 <ellipse cx="57" cy="55" rx="38" ry="28" transform="rotate(138 57 55)" fill="url(#petal2)"/>
 <circle cx="91" cy="67" r="14" fill="#e6cf94" opacity=".7"/>
</g>
<g opacity=".75">
 <path d="M260 295c-26-37-58-54-92-58 9 32 34 57 70 68" fill="#7eaa91" opacity=".36"/>
 <path d="M287 330c37-27 69-34 103-28-18 30-48 47-84 48" fill="#6f9b82" opacity=".32"/>
 <path d="M223 352c-31-22-58-28-86-22 16 25 40 37 69 37" fill="#83a992" opacity=".3"/>
</g>
<g transform="translate(132 245) scale(.58)">
 <ellipse cx="80" cy="58" rx="43" ry="31" transform="rotate(-24 80 58)" fill="url(#petal)"/>
 <ellipse cx="115" cy="43" rx="42" ry="29" transform="rotate(16 115 43)" fill="url(#petal2)"/>
 <ellipse cx="119" cy="82" rx="40" ry="28" transform="rotate(51 119 82)" fill="url(#petal)"/>
 <ellipse cx="79" cy="92" rx="40" ry="29" transform="rotate(104 79 92)" fill="url(#petal2)"/>
 <ellipse cx="57" cy="55" rx="38" ry="28" transform="rotate(138 57 55)" fill="url(#petal)"/>
 <circle cx="91" cy="67" r="14" fill="#e6cf94" opacity=".7"/>
</g>
<path d="M40 580c38-45 61-93 65-143" stroke="url(#gold)" stroke-width="1.5" opacity=".8"/>
<path d="M46 574c-7-20-6-38 5-55 16 15 19 34 10 54" fill="#8daf9d" opacity=".35"/>
<path d="M103 484c18-8 34-7 48 3-14 13-30 15-47 7" fill="#739b83" opacity=".34"/>
<circle cx="33" cy="590" r="5" fill="#d7bd7c" opacity=".7"/>
<circle cx="44" cy="605" r="3" fill="#d7bd7c" opacity=".55"/>
</svg>
